<?xml version="1.0" encoding="UTF-8"?>
<svg id="a" data-name="Layer 1" xmlns="http://www.w3.org/2000/svg" viewBox="0 0 350 200">
  <path d="M12.21,194.79c-1.58,0-3.04-.27-4.38-.82-1.34-.55-2.48-1.3-3.43-2.25-.95-.95-1.7-2.1-2.25-3.43s-.82-2.79-.82-4.38V16.06c0-1.58.27-3.04.82-4.38.55-1.34,1.3-2.48,2.25-3.43.95-.95,2.1-1.7,3.43-2.25,1.34-.55,2.8-.82,4.38-.82h47.89c1.42,0,2.74.2,3.98.61,1.23.41,2.36.98,3.37,1.73,1.01.75,1.88,1.64,2.61,2.67.73,1.03,1.28,2.2,1.64,3.49l15.86,77.79c.73,1.38,1.52,2.41,2.37,3.1.85.69,1.71,1.03,2.58,1.03s1.72-.33,2.55-1c.83-.67,1.61-1.69,2.34-3.07l15.86-77.85c.37-1.3.91-2.46,1.64-3.49.73-1.03,1.6-1.92,2.61-2.67,1.01-.75,2.14-1.33,3.37-1.73,1.24-.4,2.56-.61,3.98-.61h47.95c1.54,0,2.98.27,4.32.82,1.34.55,2.48,1.3,3.43,2.25.95.95,1.7,2.1,2.25,3.43.55,1.34.82,2.8.82,4.38v167.86c0,1.58-.27,3.04-.82,4.38s-1.3,2.48-2.25,3.43-2.1,1.7-3.43,2.25c-1.34.55-2.78.82-4.32.82h-38.29c-1.62,0-3.1-.27-4.44-.82s-2.49-1.31-3.46-2.28c-.97-.97-1.72-2.14-2.25-3.49-.53-1.36-.79-2.85-.79-4.47l1.4-70.25c0-.93-.18-1.67-.55-2.22-.36-.55-.79-.88-1.28-1-.49-.12-.99-.02-1.52.3-.53.33-.97.89-1.34,1.7l-11.97,69.4c-.81,2.51-2.24,4.52-4.28,6.02-2.05,1.5-4.47,2.25-7.26,2.25h-8.57c-2.79,0-5.23-.75-7.29-2.25-2.07-1.5-3.5-3.5-4.31-6.02l-11.97-69.46c-.32-.81-.76-1.38-1.31-1.7-.55-.32-1.06-.43-1.55-.3-.49.12-.91.46-1.28,1-.36.55-.55,1.29-.55,2.22l1.4,70.31c.04,1.62-.21,3.11-.76,4.47s-1.31,2.52-2.28,3.49c-.97.97-2.13,1.73-3.46,2.28-1.34.55-2.8.82-4.38.82H12.21Z" fill="#046788"/>
  <g>
    <path d="M225.69,77.07c5.38,0,10.09.26,14.14.77,4.05.51,7.54,1.26,10.48,2.24,2.94.98,5.37,2.22,7.28,3.7,1.92,1.48,3.45,3.2,4.59,5.16s1.95,4.15,2.41,6.57c.46,2.43.69,5.09.69,7.98v63.73c0,2.89-.23,5.55-.69,7.98-.46,2.43-1.26,4.62-2.41,6.58s-2.68,3.67-4.59,5.16-4.35,2.71-7.28,3.7c-2.94.98-6.43,1.73-10.48,2.24-4.05.51-8.76.77-14.14.77h-32.61c-2.02,0-3.56-.54-4.63-1.61s-1.61-2.62-1.61-4.63v-104.08c0-2.04.54-3.59,1.61-4.65,1.07-1.06,2.62-1.59,4.63-1.59h32.61ZM230.44,103.85c0-.55-.09-1-.26-1.34-.17-.35-.45-.62-.82-.8-.37-.19-.87-.31-1.48-.37-.61-.06-1.34-.09-2.19-.09h-2.02c-.62,0-1.1.17-1.44.5-.34.34-.5.82-.5,1.44v64.33c0,.62.17,1.1.5,1.44.34.34.82.5,1.44.5h2.02c.85,0,1.57-.04,2.19-.11.61-.07,1.1-.21,1.48-.39.37-.19.65-.45.82-.79.17-.34.26-.78.26-1.33v-62.98Z" fill="#09bdee"/>
    <path d="M275.26,193.62c-2.02,0-3.56-.54-4.63-1.61s-1.61-2.62-1.61-4.63v-104.08c0-2.04.54-3.59,1.61-4.65,1.07-1.06,2.62-1.59,4.63-1.59h33.88c5.25,0,9.83.23,13.73.69,3.9.46,7.24,1.16,10.03,2.09,2.79.93,5.09,2.12,6.91,3.55s3.24,3.09,4.28,4.99c1.03,1.89,1.76,4.03,2.17,6.43.41,2.39.62,5.03.62,7.92v10.83c0,1.87-.08,3.66-.24,5.36-.16,1.71-.49,3.32-.99,4.84-.5,1.52-1.21,2.91-2.13,4.17-.92,1.26-2.14,2.37-3.66,3.34-1.42.87-2.13,1.73-2.13,2.58s.73,1.68,2.2,2.5c1.67.95,3.01,2.05,4.03,3.32,1.02,1.27,1.81,2.68,2.37,4.22.56,1.54.93,3.2,1.12,4.97s.28,3.61.28,5.53v13.56c0,2.89-.22,5.53-.67,7.92s-1.23,4.53-2.33,6.42c-1.11,1.89-2.6,3.56-4.46,4.99-1.87,1.43-4.23,2.62-7.1,3.55s-6.27,1.63-10.22,2.09c-3.95.46-8.55.69-13.8.69h-33.88ZM303.92,120.77c0,.62.17,1.11.52,1.46s.83.52,1.46.52h2.99c.6,0,1.13-.03,1.61-.09.47-.06.86-.18,1.18-.35.31-.17.55-.42.71-.73s.24-.7.24-1.18v-17.3c0-.5-.08-.9-.24-1.21s-.4-.55-.71-.73c-.31-.17-.7-.29-1.18-.35-.47-.06-1.01-.09-1.61-.09h-2.99c-.62,0-1.11.17-1.46.5-.35.34-.52.84-.52,1.51v18.04ZM303.92,167.96c0,.65.17,1.15.52,1.49.35.35.83.52,1.46.52h3.25c.6,0,1.13-.04,1.59-.11.46-.08.85-.2,1.16-.37.31-.17.55-.41.73-.71.17-.3.26-.7.26-1.2v-20.02c0-.5-.09-.9-.26-1.21-.17-.31-.42-.55-.73-.73-.31-.17-.7-.29-1.16-.36-.46-.06-.99-.09-1.59-.09h-3.25c-.62,0-1.11.17-1.46.5s-.52.84-.52,1.51v20.77Z" fill="#09bdee"/>
  </g>
  <rect x="186.86" y="15.16" width="158.65" height="36.62" rx="1" ry="1" fill="#90ad35"/>
  <path d="M188.86,6.55h155.65c.55,0,1,.45,1,1v3.22c0,.55-.45,1-1,1h-156.65c-.55,0-1-.45-1-1v-2.22c0-1.1.9-2,2-2Z" fill="#90ad35"/>
  <path d="M188.86,55.18h155.65c.55,0,1,.45,1,1v3.22c0,.55-.45,1-1,1h-156.65c-.55,0-1-.45-1-1v-2.22c0-1.1.9-2,2-2Z" fill="#90ad35"/>
</svg>